<svg width="1000" height="244" viewBox="0 0 1000 244" fill="none" xmlns="http://www.w3.org/2000/svg">
<path d="M204.032 146.79C202.711 143.955 201.497 140.654 199.783 137.64C175.36 94.9777 151.187 52.1357 125.907 9.97536C122.836 4.84436 113.838 0.897441 107.411 0.646273C79.6672 -0.394279 51.8878 0.108057 24.1083 0.2157C0.00664477 0.359224 -5.992 10.4059 5.96958 31.217C26.3221 66.6675 47.0674 101.903 67.6342 137.246C85.8087 168.498 103.662 199.93 122.265 230.895C132.191 247.472 145.51 248.154 155.293 232.366C171.182 206.676 185.858 180.267 200.997 154.11C202.14 152.065 202.818 149.732 204.032 146.79ZM140.546 2.97855C164.934 45.4259 188.607 86.5456 212.709 128.491C225.491 117.619 226.955 108.505 219.279 96.0182C202.818 69.3227 187.214 42.0172 172.289 14.4246C165.505 1.97388 157.364 -3.12124 140.546 2.97855ZM183.358 2.90678C200.711 32.9751 217.279 61.6083 234.168 90.8514C247.844 80.3382 248.522 70.8656 240.595 58.8095C231.204 44.5289 222.635 29.5664 214.994 14.2811C208.638 1.5433 200.104 -3.0136 183.358 2.90678ZM224.742 0.287462C236.739 20.9191 246.165 37.245 257.377 56.549C265.268 43.0577 271.517 33.8004 276.266 23.8255C282.264 11.1953 276.408 1.39978 262.447 0.430987C251.45 -0.322517 240.345 0.287462 224.742 0.287462Z" fill="url(#paint0_linear)"/>
<path d="M446.664 49.7512L409.081 155.838H390.817L353.234 49.7512H372.705L399.874 127.801L427.193 49.7512H446.664Z" fill="#263C8B"/>
<path d="M482.038 157.354C474.088 157.354 467.195 155.586 461.359 152.05C455.523 148.513 451.045 143.765 447.926 137.804C444.806 131.843 443.247 125.275 443.247 118.102C443.247 110.928 444.806 104.31 447.926 98.2482C451.045 92.1861 455.523 87.3869 461.359 83.8507C467.195 80.3144 474.088 78.5463 482.038 78.5463C489.987 78.5463 496.88 80.3144 502.716 83.8507C508.552 87.3869 513.03 92.1861 516.149 98.2482C519.269 104.31 520.828 110.928 520.828 118.102C520.828 125.275 519.269 131.843 516.149 137.804C513.03 143.765 508.552 148.513 502.716 152.05C496.88 155.586 489.987 157.354 482.038 157.354ZM482.038 141.896C488.176 141.896 492.955 139.723 496.377 135.379C499.899 131.034 501.659 125.275 501.659 118.102C501.659 110.827 499.899 105.018 496.377 100.673C492.955 96.2275 488.176 94.0047 482.038 94.0047C475.899 94.0047 471.07 96.2275 467.548 100.673C464.126 105.018 462.416 110.827 462.416 118.102C462.416 125.275 464.126 131.034 467.548 135.379C471.07 139.723 475.899 141.896 482.038 141.896Z" fill="#263C8B"/>
<path d="M563.742 194.03C553.076 194.03 544.573 192.06 538.233 188.119C531.894 184.28 528.724 179.026 528.724 172.358C528.724 165.083 532.8 159.122 540.95 154.474C536.523 151.746 534.309 148.16 534.309 143.714C534.309 141.39 534.963 139.319 536.271 137.501C537.68 135.682 539.542 134.217 541.856 133.105C538.032 130.378 535.114 126.892 533.102 122.648C531.19 118.405 530.234 113.757 530.234 108.705C530.234 103.148 531.441 98.0967 533.856 93.5501C536.271 88.9025 539.793 85.2652 544.422 82.6383C549.051 79.9103 554.535 78.5463 560.874 78.5463C567.515 78.5463 573.251 80.1629 578.081 83.396C579.792 82.4867 582.056 81.7289 584.873 81.1227C587.791 80.4155 590.911 80.0619 594.231 80.0619H599.061L597.854 91.883H591.061C589.351 91.883 587.942 91.9335 586.835 92.0346C589.854 96.6822 591.363 102.239 591.363 108.705C591.363 114.262 590.156 119.365 587.741 124.012C585.427 128.559 581.955 132.196 577.326 134.924C572.697 137.551 567.213 138.864 560.874 138.864C558.56 138.864 555.893 138.511 552.874 137.804C551.767 138.309 551.214 139.117 551.214 140.228C551.214 141.542 551.969 142.603 553.478 143.411C555.088 144.118 557.755 144.725 561.478 145.23L574.458 146.897C591.766 149.221 600.42 156.546 600.42 168.872C600.42 176.551 597.149 182.663 590.609 187.21C584.169 191.757 575.213 194.03 563.742 194.03ZM560.874 124.922C565.201 124.922 568.522 123.507 570.836 120.678C573.251 117.748 574.458 113.757 574.458 108.705C574.458 103.654 573.251 99.7132 570.836 96.8843C568.522 93.9542 565.201 92.4892 560.874 92.4892C556.447 92.4892 553.025 93.9542 550.61 96.8843C548.296 99.7132 547.139 103.654 547.139 108.705C547.139 113.757 548.296 117.748 550.61 120.678C553.025 123.507 556.447 124.922 560.874 124.922ZM564.497 179.784C577.377 179.784 583.817 176.601 583.817 170.236C583.817 167.407 582.71 165.285 580.496 163.871C578.282 162.557 574.609 161.496 569.477 160.688L552.874 158.263C547.139 160.587 544.271 164.123 544.271 168.872C544.271 172.509 546.032 175.237 549.554 177.056C553.076 178.875 558.057 179.784 564.497 179.784Z" fill="#263C8B"/>
<path d="M675.281 80.0619V155.838H657.772L657.47 151.292C655.156 153.009 652.489 154.474 649.471 155.687C646.452 156.798 643.534 157.354 640.716 157.354C629.547 157.354 621.396 154.121 616.264 147.655C611.233 141.188 608.718 132.247 608.718 120.83V80.0619H627.434V120.83C627.434 127.902 628.591 133.156 630.905 136.591C633.32 139.925 637.144 141.592 642.377 141.592C648.213 141.592 652.942 139.471 656.565 135.227V80.0619H675.281Z" fill="#263C8B"/>
<path d="M729.129 157.354C720.375 157.354 712.878 155.586 706.639 152.05C700.501 148.412 695.872 143.613 692.753 137.652C689.734 131.59 688.225 124.871 688.225 117.495C688.225 110.423 689.684 103.957 692.602 98.0967C695.52 92.2366 699.747 87.589 705.281 84.1538C710.815 80.6175 717.406 78.8494 725.054 78.8494C732.097 78.8494 738.034 80.3144 742.864 83.2445C747.795 86.1745 751.468 90.1149 753.883 95.0656C756.398 100.016 757.656 105.573 757.656 111.736C757.656 114.768 757.254 118.203 756.449 122.042H707.696C708.702 128.71 711.318 133.712 715.545 137.046C719.771 140.279 724.852 141.896 730.789 141.896C738.94 141.896 746.487 139.824 753.43 135.682L754.336 151.595C751.116 153.313 747.342 154.727 743.015 155.838C738.789 156.849 734.16 157.354 729.129 157.354ZM738.638 109.312C738.638 105.371 737.531 101.886 735.317 98.8544C733.104 95.8234 729.682 94.3079 725.054 94.3079C720.425 94.3079 716.702 95.6718 713.884 98.3998C711.067 101.128 709.155 104.765 708.149 109.312H738.638Z" fill="#263C8B"/>
<path d="M770.942 49.7512H808.526C833.581 49.7512 846.109 61.1682 846.109 84.0022C846.109 95.8234 842.939 104.613 836.6 110.372C830.26 116.132 821.053 119.011 808.978 119.011H790.262V155.838H770.942V49.7512ZM806.714 102.795C813.356 102.795 818.286 101.279 821.506 98.2482C824.827 95.2172 826.487 90.5695 826.487 84.3053C826.487 78.0411 824.827 73.444 821.506 70.514C818.186 67.4829 813.104 65.9674 806.261 65.9674H790.262V102.795H806.714Z" fill="#263C8B"/>
<path d="M872.373 157.354C866.134 157.354 860.902 155.333 856.676 151.292C852.55 147.149 850.487 141.592 850.487 134.621C850.487 128.054 852.852 122.8 857.581 118.859C862.311 114.818 867.895 111.989 874.335 110.372C880.775 108.655 886.964 107.695 892.901 107.493C892.699 103.047 891.542 99.8648 889.429 97.9451C887.417 96.0255 884.046 95.0656 879.316 95.0656C875.996 95.0656 872.725 95.5203 869.505 96.4296C866.386 97.3389 862.763 98.8039 858.638 100.825L856.978 85.5178C866.134 81.0722 875.291 78.8494 884.448 78.8494C893.303 78.8494 900.045 81.2743 904.674 86.124C909.403 90.9737 911.768 98.7029 911.768 109.312V129.771C911.768 133.611 911.919 136.389 912.221 138.107C912.623 139.723 913.227 140.784 914.032 141.289C914.938 141.693 916.397 141.896 918.409 141.896H920.824L919.164 157.354H912.372C908.246 157.354 904.774 156.596 901.957 155.081C899.139 153.464 896.976 151.292 895.467 148.564C893.052 151.292 889.731 153.464 885.505 155.081C881.379 156.596 877.002 157.354 872.373 157.354ZM880.222 142.956C882.134 142.956 884.297 142.502 886.712 141.592C889.127 140.582 891.24 139.218 893.052 137.501V120.223C887.014 120.527 881.681 121.84 877.052 124.164C872.424 126.488 870.109 129.721 870.109 133.863C870.109 136.995 870.914 139.319 872.524 140.835C874.134 142.249 876.7 142.956 880.222 142.956Z" fill="#263C8B"/>
<path d="M950.795 150.837L919.4 80.0619H940.229L959.549 128.862L979.171 80.0619H1000L952.757 192.514H934.04L950.795 150.837Z" fill="#263C8B"/>
<defs>
<linearGradient id="paint0_linear" x1="278.607" y1="7.26524e-06" x2="36.9832" y2="276.141" gradientUnits="userSpaceOnUse">
<stop stop-color="#00C4F9"/>
<stop offset="1" stop-color="#64D9FF"/>
<stop offset="1" stop-color="white"/>
</linearGradient>
</defs>
</svg>
